<svg width="122" height="122" viewBox="0 0 122 122" fill="none" xmlns="http://www.w3.org/2000/svg">
<g filter="url(#filter0_dd)">
<circle cx="61" cy="61" r="21" fill="url(#paint0_linear)"/>
</g>
<path d="M64.3787 53.25H57.622C55.2066 53.25 53.25 55.2076 53.25 57.622V64.378C53.25 66.7934 55.2076 68.75 57.622 68.75H64.378C66.7933 68.75 68.75 66.7925 68.75 64.3787V57.622C68.75 55.2067 66.7925 53.25 64.3787 53.25Z" stroke="#80758F" stroke-width="2" stroke-linecap="round" stroke-linejoin="round"/>
<path d="M64.7106 57.035C64.5711 57.0357 64.4578 57.149 64.4578 57.2885C64.4578 57.428 64.5718 57.5412 64.7113 57.5412C64.8508 57.5412 64.9641 57.428 64.9641 57.2885C64.9648 57.1482 64.8508 57.035 64.7106 57.035" stroke="#80758F" stroke-width="2" stroke-linecap="round" stroke-linejoin="round"/>
<path d="M62.9094 59.0906C63.9638 60.145 63.9638 61.8546 62.9094 62.909C61.8549 63.9634 60.1454 63.9634 59.091 62.909C58.0366 61.8546 58.0366 60.145 59.091 59.0906C60.1454 58.0362 61.8549 58.0362 62.9094 59.0906" stroke="#80758F" stroke-width="2" stroke-linecap="round" stroke-linejoin="round"/>
<circle cx="61" cy="61" r="23" stroke="url(#paint1_linear)" stroke-width="4"/>
<defs>
<filter id="filter0_dd" x="0" y="0" width="122" height="122" filterUnits="userSpaceOnUse" color-interpolation-filters="sRGB">
<feFlood flood-opacity="0" result="BackgroundImageFix"/>
<feColorMatrix in="SourceAlpha" type="matrix" values="0 0 0 0 0 0 0 0 0 0 0 0 0 0 0 0 0 0 127 0"/>
<feOffset dx="10" dy="10"/>
<feGaussianBlur stdDeviation="15"/>
<feColorMatrix type="matrix" values="0 0 0 0 0.0156863 0 0 0 0 0.0196078 0 0 0 0 0.054902 0 0 0 0.4 0"/>
<feBlend mode="normal" in2="BackgroundImageFix" result="effect1_dropShadow"/>
<feColorMatrix in="SourceAlpha" type="matrix" values="0 0 0 0 0 0 0 0 0 0 0 0 0 0 0 0 0 0 127 0"/>
<feOffset dx="-10" dy="-10"/>
<feGaussianBlur stdDeviation="15"/>
<feColorMatrix type="matrix" values="0 0 0 0 0.211765 0 0 0 0 0.14902 0 0 0 0 0.258824 0 0 0 0.35 0"/>
<feBlend mode="normal" in2="effect1_dropShadow" result="effect2_dropShadow"/>
<feBlend mode="normal" in="SourceGraphic" in2="effect2_dropShadow" result="shape"/>
</filter>
<linearGradient id="paint0_linear" x1="84.4062" y1="84.9229" x2="48.6185" y2="39.9502" gradientUnits="userSpaceOnUse">
<stop stop-color="#1C1D30"/>
<stop offset="1" stop-color="#0B0C12"/>
</linearGradient>
<linearGradient id="paint1_linear" x1="97.2108" y1="113.033" x2="60.2108" y2="38.0579" gradientUnits="userSpaceOnUse">
<stop offset="0.479167" stop-color="#0B0D19" stop-opacity="0.7"/>
<stop offset="1" stop-color="#25263A" stop-opacity="0.5"/>
</linearGradient>
</defs>
</svg>
